<svg width="70" height="63" viewBox="0 0 70 63" fill="none" xmlns="http://www.w3.org/2000/svg">
<path d="M69.0028 62.32C68.6714 62.8435 68.1996 63 67.582 63C45.5229 62.9874 23.4657 62.9892 1.40665 62.9892C0.311806 62.9892 0.00388005 62.6834 0.00207931 61.5986C0.000278575 59.3102 -0.00152216 57.02 0.00207931 54.7316C0.00207931 53.7655 0.331614 53.4345 1.28961 53.4327C4.70381 53.4291 8.11801 53.4327 11.5322 53.4327C11.7789 53.4327 12.0238 53.4327 12.4362 53.4327C12.2111 53.2384 12.103 53.1233 11.977 53.0387C7.04297 49.7285 4.65879 45.0996 4.87127 39.1736C4.94871 37.0201 5.55015 34.9782 6.55497 33.0622C6.94572 32.3174 7.49135 32.071 8.05858 32.384C8.5826 32.6736 8.67083 33.2367 8.31609 33.9707C6.10478 38.5565 6.26865 43.0541 8.99857 47.3556C11.9752 52.0493 17.7069 54.343 23.0425 53.1107C28.5942 51.828 32.6981 47.3412 33.404 41.7858C34.1117 36.2105 31.3439 30.9915 26.2136 28.2264C21.6055 25.742 15.5893 26.4634 11.4728 29.9913C11.2855 30.1514 11.1108 30.3367 10.9019 30.4608C10.4356 30.7379 9.97997 30.6749 9.63062 30.2611C9.30289 29.8725 9.3263 29.4372 9.61262 29.0198C9.66304 28.946 9.72967 28.8831 9.79629 28.8237C13.0754 25.9021 16.9038 24.5528 21.2958 24.828C21.5875 24.846 21.8774 24.8802 22.1692 24.8982C22.225 24.9018 22.2844 24.8676 22.4033 24.8316C22.2196 24.5672 22.0593 24.3333 21.8973 24.103C17.8132 18.3137 18.2634 10.4016 22.9795 5.1214C23.174 4.90371 23.3631 4.67344 23.5935 4.49893C24.0221 4.1733 24.4795 4.1805 24.8775 4.5547C25.252 4.90551 25.2988 5.33728 25.0323 5.77625C24.9297 5.94715 24.7802 6.08928 24.6434 6.2368C19.216 12.1035 20.1379 21.3955 26.6116 26.0838C34.8464 32.0458 46.6124 26.8897 47.6748 16.7881C48.2096 11.7041 46.3675 7.48893 42.2006 4.49533C38.0373 1.50353 33.4994 1.1887 28.7959 3.20542C28.6104 3.28458 28.4357 3.39612 28.2449 3.45189C27.7082 3.60841 27.2562 3.48787 26.9951 2.96075C26.7592 2.48401 26.9411 1.86514 27.4759 1.66005C28.8121 1.15092 30.1428 0.546446 31.5348 0.281988C40.0703 -1.34074 48.0836 4.20209 49.5386 12.7421C50.2445 16.8817 49.3441 20.719 46.9131 24.1732C46.7636 24.3855 46.6214 24.6014 46.4647 24.8316C54.8976 24.3837 61.0435 27.7119 63.4889 35.9119C65.6606 43.1926 62.8586 49.0233 56.5597 53.4327H57.3466C60.7608 53.4327 64.175 53.4453 67.5892 53.4219C68.2086 53.4183 68.6822 53.5695 69.0046 54.1074V62.3218L69.0028 62.32ZM66.9373 60.9653V55.471H2.04232V60.9653H66.9373ZM35.4892 40.0623C35.4514 47.379 41.4407 53.4021 48.7841 53.4291C56.1347 53.4561 62.1311 47.5067 62.16 40.1594C62.1888 32.8212 56.2733 26.8088 48.9822 26.7656C41.5379 26.7206 35.5306 32.6431 35.491 40.0641L35.4892 40.0623ZM27.8037 53.3824H41.1958C38.0481 51.4736 35.8908 48.9495 34.497 45.5709C33.1068 48.9495 30.946 51.4718 27.8037 53.3824ZM36.7407 30.5076H32.2569C33.006 31.8011 33.7659 33.1108 34.4952 34.3683C35.2443 33.082 36.0024 31.7759 36.7407 30.5076Z" fill="#4C192A"/>
<path d="M34.4452 26.6451C28.139 26.6523 23.0483 21.5772 23.0483 15.2824C23.0483 9.00372 28.166 3.89446 34.4488 3.90345C40.7028 3.91245 45.7989 9.00192 45.8115 15.2518C45.8241 21.5538 40.7532 26.6379 34.4452 26.6451ZM31.9386 15.2536C31.9386 18.0997 31.9476 20.9475 31.9296 23.7936C31.9278 24.2038 32.0448 24.4574 32.4554 24.4628C33.7699 24.479 35.0845 24.4808 36.399 24.4628C36.743 24.4574 36.9302 24.2847 36.9284 23.8638C36.9122 18.1482 36.914 12.4309 36.9266 6.71535C36.9266 6.30877 36.7628 6.18283 36.399 6.10727C35.1061 5.83382 33.8222 5.84282 32.5256 6.08748C32.0538 6.17564 31.9242 6.38073 31.9278 6.85028C31.9512 9.65138 31.9386 12.4543 31.9386 15.2554V15.2536ZM38.9651 7.04997V23.4338C41.7922 22.1997 43.8829 18.6466 43.8054 15.1384C43.7262 11.5853 42.0533 8.94975 38.9651 7.04997ZM29.9056 7.12193C26.9001 8.50359 24.8635 12.0945 25.0688 15.8365C25.2524 19.2097 26.9361 21.7175 29.9056 23.5273V7.12193Z" fill="#4C192A"/>
<path d="M19.7829 28.7518C26.08 28.7428 31.1671 33.8287 31.1671 40.1307C31.1671 46.431 26.08 51.5043 19.7739 51.4917C13.5073 51.4809 8.4202 46.4058 8.40579 40.1541C8.39139 33.8773 13.4983 28.759 19.7829 28.7518ZM17.3014 40.1343C17.3014 42.939 17.314 45.7437 17.2906 48.5484C17.287 49.054 17.4419 49.2483 17.9443 49.3364C19.2228 49.5613 20.4851 49.5577 21.7583 49.313C22.1274 49.2411 22.2859 49.1097 22.2841 48.705C22.2715 42.984 22.2733 37.2631 22.2841 31.5403C22.2841 31.1823 22.1688 31.0276 21.8123 30.9557C20.5194 30.6912 19.2354 30.6876 17.9335 30.9215C17.4167 31.015 17.2906 31.2309 17.2942 31.7221C17.314 34.5268 17.3032 37.3314 17.3032 40.1361L17.3014 40.1343ZM24.3063 31.8606V48.3829C27.1983 46.6127 28.9 44.1876 29.1377 40.8917C29.4204 36.968 27.7277 34.023 24.3063 31.8606ZM15.2756 48.2552V32.0045C12.6988 32.9094 10.4244 36.6568 10.3974 39.985C10.3686 43.4842 12.5727 47.2567 15.2756 48.2552Z" fill="#4C192A"/>
<path d="M48.8257 28.7193C55.1067 28.7121 60.2262 33.8268 60.2226 40.1036C60.219 46.3553 55.1481 51.4285 48.8726 51.4591C42.5772 51.4897 37.4667 46.4092 37.4595 40.1162C37.4541 33.8106 42.525 28.7265 48.8257 28.7193ZM51.3234 40.1036C51.3234 37.2773 51.3162 34.4492 51.3306 31.623C51.3324 31.1894 51.2171 30.9915 50.7597 30.9033C49.4614 30.6533 48.1775 30.6533 46.8809 30.9087C46.4686 30.9897 46.3371 31.1516 46.3389 31.5726C46.3533 37.2485 46.3533 42.9263 46.3389 48.6023C46.3389 49.061 46.4974 49.2139 46.9314 49.2931C48.1847 49.5216 49.4236 49.5216 50.6787 49.3039C51.1793 49.2175 51.3378 49.025 51.3342 48.5177C51.3108 45.713 51.3234 42.9083 51.3234 40.1036ZM44.3203 31.9054C41.1114 33.5047 39.1522 37.1226 39.4961 40.9959C39.7824 44.2216 41.4589 46.6197 44.3203 48.3414V31.9054ZM53.3672 31.8496V48.3396C56.4789 46.4092 58.1734 43.7521 58.2094 40.199C58.2472 36.5577 56.5509 33.8358 53.3672 31.8496Z" fill="#4C192A"/>
<path d="M35.4191 20.6434C35.4191 20.9348 35.4479 21.2281 35.4119 21.5159C35.3416 22.0772 35.0031 22.428 34.4359 22.4316C33.8686 22.4352 33.4995 22.0916 33.4509 21.5303C33.4004 20.9528 33.4095 20.3663 33.4437 19.787C33.4779 19.2059 33.9191 18.8083 34.4557 18.8389C35.0337 18.8731 35.3506 19.2149 35.4155 19.7726C35.4479 20.0605 35.4209 20.3537 35.4209 20.6452L35.4191 20.6434Z" fill="#4C192A"/>
<path d="M21.143 45.4432C21.143 45.7346 21.1646 46.0261 21.1376 46.3139C21.089 46.85 20.7846 47.1828 20.2408 47.2278C19.6592 47.2746 19.2612 46.9598 19.1982 46.4075C19.1262 45.7688 19.1298 45.1085 19.1982 44.4699C19.2522 43.9446 19.6466 43.6279 20.1796 43.6459C20.7378 43.6657 21.089 43.9949 21.1394 44.5724C21.1646 44.8603 21.143 45.1535 21.143 45.4432Z" fill="#4C192A"/>
<path d="M47.8479 45.3822C47.8479 45.1141 47.8299 44.8443 47.8533 44.578C47.9019 43.9987 48.2513 43.6695 48.8077 43.6461C49.3425 43.6227 49.7369 43.9411 49.7927 44.4647C49.8612 45.1051 49.8648 45.7636 49.7927 46.4022C49.7315 46.9527 49.3407 47.2766 48.7555 47.2262C48.1811 47.1758 47.8785 46.8232 47.8497 46.2529C47.8335 45.9633 47.8479 45.6718 47.8479 45.3804V45.3822Z" fill="#4C192A"/>
</svg>
