<svg width="19" height="33" viewBox="0 0 19 33" fill="none" xmlns="http://www.w3.org/2000/svg">
<path d="M0.726558 0.726381C0.261343 1.19162 -7.96658e-08 1.82254 -1.08421e-07 2.48039C-1.37177e-07 3.13825 0.261343 3.76916 0.726558 4.23441L13.0101 16.515L0.726557 28.7955C0.274527 29.2635 0.0244013 29.8901 0.0300553 30.5406C0.0357092 31.1911 0.29669 31.8134 0.756785 32.2734C1.21688 32.7333 1.83928 32.9943 2.48993 32.9999C3.14058 33.0056 3.76741 32.7555 4.23544 32.3036L18.2734 18.269C18.7387 17.8037 19 17.1728 19 16.515C19 15.8571 18.7387 15.2262 18.2734 14.761L4.23544 0.726381C3.77008 0.26128 3.13901 1.3721e-07 2.481 1.08448e-07C1.82299 7.96852e-08 1.19191 0.26128 0.726558 0.726381Z" fill="#D2AA67"/>
</svg>
