<svg width="19" height="19" viewBox="0 0 19 19" fill="none" xmlns="http://www.w3.org/2000/svg">
<path d="M7.33756 1.15708C8.56019 1.15596 9.75567 1.51749 10.7728 2.19593C11.7899 2.87437 12.583 3.83924 13.0516 4.96848C13.5203 6.09771 13.6435 7.34058 13.4056 8.53985C13.1678 9.73912 12.5796 10.8409 11.7155 11.7058C10.8513 12.5707 9.75009 13.1599 8.55104 13.3989C7.35199 13.6378 6.10901 13.5157 4.97934 13.0481C3.84968 12.5805 2.88409 11.7883 2.20472 10.7718C1.52535 9.75534 1.16272 8.56018 1.16272 7.33756C1.17014 5.70165 1.8229 4.13478 2.97914 2.97748C4.13539 1.82018 5.70166 1.16598 7.33756 1.15708ZM7.33756 0C5.88633 0 4.46769 0.43034 3.26103 1.2366C2.05438 2.04286 1.1139 3.18883 0.558542 4.5296C0.00317935 5.87036 -0.142129 7.3457 0.140992 8.76905C0.424114 10.1924 1.12295 11.4998 2.14912 12.526C3.1753 13.5522 4.48273 14.251 5.90608 14.5341C7.32942 14.8172 8.80476 14.6719 10.1455 14.1166C11.4863 13.5612 12.6323 12.6207 13.4385 11.4141C14.2448 10.2074 14.6751 8.78879 14.6751 7.33756C14.6751 5.39152 13.9021 3.52518 12.526 2.14912C11.1499 0.773062 9.2836 0 7.33756 0Z" fill="#E4E4E4"/>
<path d="M17.8754 17.0965L13.7155 12.9085L12.9141 13.7043L17.0739 17.8924C17.1262 17.945 17.1883 17.9868 17.2567 18.0154C17.3251 18.044 17.3985 18.0589 17.4726 18.0592C17.5468 18.0594 17.6203 18.0451 17.6889 18.0169C17.7575 17.9888 17.8199 17.9474 17.8726 17.8952C17.9252 17.8429 17.967 17.7808 17.9956 17.7124C18.0243 17.644 18.0391 17.5706 18.0394 17.4964C18.0396 17.4223 18.0253 17.3488 17.9972 17.2802C17.969 17.2115 17.9276 17.1491 17.8754 17.0965Z" fill="#E4E4E4"/>
</svg>
