<svg width="36" height="21" viewBox="0 0 36 21" fill="none" xmlns="http://www.w3.org/2000/svg">
<path d="M35.2076 0.803038C34.7 0.288853 34.0118 1.73816e-07 33.2941 2.36556e-07C32.5765 2.99295e-07 31.8882 0.288854 31.3806 0.803038L17.9837 14.3796L4.58667 0.803041C4.07623 0.303428 3.39257 0.0269742 2.68295 0.0332234C1.97332 0.0394726 1.2945 0.327924 0.792702 0.836451C0.290905 1.34498 0.00627154 2.03289 0.000103237 2.75203C-0.00606125 3.47117 0.266735 4.16399 0.759739 4.68128L16.0702 20.197C16.5777 20.7111 17.266 21 17.9837 21C18.7013 21 19.3896 20.7111 19.8971 20.197L35.2076 4.68127C35.715 4.16693 36 3.46943 36 2.74216C36 2.01488 35.715 1.31738 35.2076 0.803038Z" fill="#D2AA67"/>
</svg>
