<svg width="92" height="92" viewBox="0 0 92 92" fill="none" xmlns="http://www.w3.org/2000/svg">
<g clip-path="url(#clip0_227_1196)">
<path d="M72.9906 21.7331C73.4807 23.6673 73.2798 24.1591 71.5861 25.407C70.1837 26.4409 68.8027 27.5042 67.3108 28.6304C67.5686 28.6502 67.7329 28.6755 67.8946 28.674C70.282 28.6466 72.5235 29.107 74.4956 30.5549C74.7132 30.7137 75.0645 30.7334 75.3558 30.7412C78.3203 30.8095 80.5824 32.1249 82.1916 34.5818C82.688 35.3402 82.5378 35.987 81.8548 36.3069C81.248 36.5906 80.8393 36.4253 80.3577 35.6735C79.5811 34.4611 78.5184 33.6123 77.1601 33.1365C76.9464 33.0619 76.7166 33.0246 76.4054 32.9487C76.7222 34.2765 76.5742 35.4844 75.7344 36.4684C75.3118 36.9631 74.7089 37.3924 74.1021 37.6254C72.9541 38.0659 71.5158 37.4165 70.8153 36.2988C69.9227 34.8741 70.3007 33.4122 72.0203 31.6285C69.9268 30.1098 64.4152 30.701 62.189 32.7163C66.6748 33.4206 69.7202 35.8135 70.673 40.307C71.5978 44.6683 69.9408 48.2449 66.6851 51.2096C68.4975 53.5327 69.1927 56.148 68.7787 59.0395C68.4105 61.5996 67.249 63.7676 65.4131 65.5822C61.8176 69.135 55.7578 70.2557 51.1223 66.5829C49.3367 68.9879 47.0226 70.6371 44.0588 71.2596C41.0937 71.8806 38.3513 71.3472 35.8331 69.5431C35.6232 69.753 35.4079 69.9603 35.2006 70.1755C32.6346 72.8537 29.5125 74.1924 25.804 73.8775C20.4603 73.4251 16.738 68.8605 17.2396 63.4625C17.52 60.4509 18.7927 57.9128 21.0269 55.8628C21.166 55.7344 21.3077 55.6114 21.4428 55.479C21.4735 55.4482 21.4869 55.3974 21.4454 55.4763C20.8746 54.3118 20.3251 53.2274 19.8157 52.1243C19.661 51.7877 19.6105 51.4003 19.528 51.0343C19.4109 50.5134 19.4353 50.0297 20.0114 49.7821C20.4831 49.58 21.1843 49.8693 21.4631 50.37C21.5431 50.5116 21.6031 50.6705 21.6404 50.8281C22.8732 55.9788 28.3826 57.91 32.9403 55.6697C34.5482 54.8787 35.7397 53.6205 36.9953 52.3142C35.9985 50.9135 35.3518 49.3683 35.1435 47.6571C34.9392 45.9765 35.149 44.3357 35.7142 42.6412C35.3908 42.727 35.1717 42.7833 34.9539 42.8409C31.8509 43.6692 28.9294 43.3363 26.2629 41.4695C25.9091 41.2226 25.6872 41.327 25.3904 41.5383C24.1378 42.4359 23.203 43.5977 22.4483 44.9263C22.0188 45.6842 21.1303 45.7825 20.6833 45.0788C20.5019 44.7903 20.481 44.2426 20.6322 43.9285C21.3215 42.4863 22.3298 41.2751 23.5772 40.268C23.8125 40.0781 24.0465 39.8895 24.2951 39.6889C24.0043 39.2189 23.7281 38.8116 23.492 38.3829C21.2242 34.2646 22.2014 28.8583 25.8209 25.4444C29.3521 22.1134 34.3268 21.2875 38.2876 23.379C38.739 23.6165 39.2182 24.109 39.6217 24.0499C40.0346 23.9894 40.3571 23.384 40.7382 23.0349C42.0431 21.8421 43.5269 20.9564 45.216 20.4126C45.4713 20.3309 45.7881 20.1288 45.8845 19.9016C47.2901 16.6139 49.7196 14.2217 52.6044 12.2526C53.7674 11.4581 55.0252 10.7983 56.2655 10.1266C57.0729 9.69039 57.4455 9.80363 58.0368 10.5259C60.6286 13.6928 62.5362 17.1835 63.1032 21.3046C63.1085 21.3474 63.1445 21.3861 63.1672 21.4248C63.5416 21.0905 63.8906 20.7201 64.2956 20.4272C65.3664 19.65 66.5651 19.4019 67.8487 19.7361C69.3019 20.1143 70.7472 20.5326 72.1937 20.9335C72.4607 21.2005 72.7263 21.4661 72.9933 21.7331L72.9906 21.7331ZM54.7635 50.0921C55.4646 50.4482 56.1376 50.8832 56.8722 51.1524C61.0526 52.6746 65.947 50.4393 67.9693 46.121C69.8137 42.1808 68.4988 37.6836 64.9333 35.736C61.492 33.8565 56.0773 35.2238 54.0372 38.4573C54.4814 39.2786 54.9523 40.0651 55.3391 40.8904C55.6138 41.4754 55.3796 41.9846 54.8329 42.2483C54.309 42.4999 53.7614 42.324 53.4465 41.7872C53.3518 41.6256 53.2878 41.4466 53.2025 41.2784C52.2728 39.4528 50.855 38.1795 48.8996 37.5425C43.8789 35.9048 38.2433 39.5168 37.3034 44.9605C36.369 50.3775 40.8008 54.8173 46.2032 53.8014C49.8391 53.1183 52.2497 50.9185 53.5339 47.4665C53.8285 46.6753 54.3257 46.381 54.9722 46.6182C55.5839 46.8449 55.8065 47.3858 55.544 48.1341C55.3271 48.7516 55.0607 49.3517 54.7635 50.0947L54.7635 50.0921ZM41.9111 24.7481C41.4523 25.3724 40.9267 25.9593 40.5441 26.6276C38.8288 29.6218 38.6526 32.6386 40.5231 35.6431C40.8246 36.1291 41.0876 36.4055 41.7973 36.0856C45.2469 34.5289 48.647 34.5941 51.893 36.6742C52.2629 36.9104 52.4741 36.814 52.7495 36.568C54.0759 35.3724 55.0083 33.9248 55.5535 32.2289C56.7483 28.5138 55.4395 24.8435 52.2867 23.0359C49.1192 21.2189 44.8179 21.9507 41.9151 24.7467L41.9111 24.7481ZM39.2201 37.7123C36.6327 33.9349 36.4824 30.0513 38.4471 25.9106C37.73 25.5438 37.0584 25.1049 36.3238 24.8383C31.0001 22.9029 24.8749 27.0738 24.4238 32.9125C24.105 37.0437 26.9249 40.7221 30.8631 41.181C34.2682 41.5776 36.8668 39.9268 39.2187 37.7137L39.2201 37.7123ZM38.4769 53.9054C36.676 55.4901 35.1474 57.2376 34.5202 59.6296C33.2308 64.5419 36.3839 69.1097 41.3537 69.3567C44.6855 69.5222 47.3067 68.0704 49.3103 65.4314C49.5818 65.0745 49.602 64.8273 49.3632 64.4414C47.7795 61.8709 47.5107 59.1096 48.272 56.2178C48.3336 55.98 48.3913 55.7408 48.457 55.4748C43.6091 56.4569 42.3093 56.2536 38.4769 53.9054ZM53.5837 51.7871C52.0567 53.2954 50.8222 54.869 50.2714 56.8988C49.1229 61.131 51.3038 65.2561 55.3335 66.4217C59.2217 67.5473 63.7138 65.5301 65.6903 61.7035C67.2091 58.7616 67.217 55.8331 65.369 52.9983C65.0768 52.551 64.7963 52.3882 64.2336 52.6733C62.6939 53.4521 61.0343 53.7635 59.3109 53.7275C57.204 53.6825 55.2981 53.0282 53.5837 51.7871ZM23.145 56.8389C20.6637 58.8504 19.3042 61.3579 19.3122 64.5082C19.3209 68.3867 22.2014 71.5078 26.0716 71.7838C29.2765 72.0122 31.9002 70.7528 33.9717 68.3289C34.0907 68.1885 34.0857 67.7903 33.9723 67.6288C32.2563 65.1693 31.8097 62.4656 32.3799 59.5593C32.4739 59.0782 32.6159 58.6078 32.7486 58.08C29.3395 59.161 26.1493 58.8752 23.1464 56.8403L23.145 56.8389ZM48.304 19.9116C50.8357 19.9482 53.0274 20.7306 54.8858 22.3723C56.7415 24.0114 57.7698 26.0934 58.1016 28.6689C58.9148 27.5353 59.6024 26.4926 60.3781 25.522C60.9465 24.8095 61.1276 24.0197 61.1443 23.1593C61.2254 18.9 59.1575 15.5243 56.7634 12.2825C53.4369 13.6628 49.2734 17.4098 48.304 19.9116ZM57.5701 33.1143C57.6075 33.1463 57.6462 33.1797 57.6836 33.2117C62.1875 29.8238 66.6914 26.4332 71.2581 22.9985C71.0538 22.853 70.9871 22.7756 70.9069 22.7543C69.6594 22.416 68.4172 22.0429 67.1549 21.7674C66.2786 21.5758 65.5289 21.9118 64.9992 22.655C63.2188 25.1455 61.4452 27.64 59.6715 30.1345C58.9666 31.1251 58.271 32.1224 57.5701 33.117V33.1143ZM72.9512 33.6344C72.3576 34.1693 72.2755 34.82 72.7107 35.2739C73.1044 35.6864 73.6656 35.6992 74.0854 35.3088C74.5895 34.8394 74.6691 33.8226 74.1458 33.3261C73.6319 32.8389 73.3187 33.5285 72.9512 33.6344Z" fill="#4C192A"/>
<path d="M61.7518 62.6061C59.5002 64.6441 56.3712 64.7536 54.3259 62.9918C53.6851 62.4392 53.5814 61.8755 54.0214 61.3501C54.4386 60.8527 54.9957 60.8483 55.6353 61.3327C57.0666 62.4163 58.7059 62.3842 60.0923 61.2488C60.2554 61.115 60.4145 60.9693 60.5936 60.8596C61.1163 60.5452 61.5972 60.6329 61.9722 61.0989C62.3299 61.5448 62.2881 62.0111 61.9136 62.4443C61.8213 62.5499 61.7144 62.6435 61.7518 62.6061Z" fill="#4C192A"/>
<path d="M23.2045 68.2272C22.6531 67.7 22.5908 67.175 23.0187 66.683C23.448 66.1896 23.9891 66.1424 24.5152 66.5508C26.1133 67.7879 27.7193 67.7465 29.2996 66.3877C29.7221 66.024 30.1484 65.8753 30.6505 66.1288C31.2715 66.4422 31.4017 67.2838 30.8709 67.8146C28.7355 69.942 25.3645 70.184 23.2058 68.2286L23.2045 68.2272Z" fill="#4C192A"/>
</g>
<defs>
<clipPath id="clip0_227_1196">
<rect width="56.3795" height="72.488" fill="white" transform="translate(51.2568) rotate(45)"/>
</clipPath>
</defs>
</svg>
