<svg width="19" height="19" viewBox="0 0 19 19" fill="none" xmlns="http://www.w3.org/2000/svg">
<path d="M1 9.28C1 13.853 4.70696 17.56 9.28 17.56C13.853 17.56 17.56 13.853 17.56 9.28C17.56 4.70696 13.853 1 9.28 1C4.70696 1 1 4.70696 1 9.28Z" stroke="#E4E4E4" stroke-linecap="round" stroke-linejoin="round"/>
<path d="M1.52173 12.178H17.0384M1.52173 6.38201H17.0384M10.1081 1.04141C10.1081 1.04141 14.7997 4.31201 14.7997 9.28001C14.7997 14.248 10.1081 17.5186 10.1081 17.5186L10.6597 9.28001L10.1081 1.04141ZM8.45209 17.5186C8.45209 17.5186 4.67974 14.248 4.67974 9.28001C4.67974 4.31201 8.45209 1.04141 8.45209 1.04141L7.89974 9.28001L8.45209 17.5186Z" stroke="#E4E4E4" stroke-linecap="round" stroke-linejoin="round"/>
</svg>
