<svg width="19" height="33" viewBox="0 0 19 33" fill="none" xmlns="http://www.w3.org/2000/svg">
<path d="M18.2734 32.2736C18.7387 31.8084 19 31.1775 19 30.5196C19 29.8618 18.7387 29.2308 18.2734 28.7656L5.98988 16.485L18.2734 4.20445C18.7255 3.73654 18.9756 3.10986 18.9699 2.45937C18.9643 1.80888 18.7033 1.18663 18.2432 0.726646C17.7831 0.266663 17.1607 0.00574873 16.5101 9.53377e-05C15.8594 -0.00555805 15.2326 0.244507 14.7646 0.696426L0.726559 14.731C0.261343 15.1963 2.04784e-07 15.8272 1.96939e-07 16.485C1.89094e-07 17.1429 0.261343 17.7738 0.726559 18.239L14.7646 32.2736C15.2299 32.7387 15.861 33 16.519 33C17.177 33 17.8081 32.7387 18.2734 32.2736Z" fill="#D2AA67"/>
</svg>
