<svg width="63" height="63" viewBox="0 0 63 63" fill="none" xmlns="http://www.w3.org/2000/svg">
<g clip-path="url(#clip0_227_1191)">
<path d="M49.4881 62.9999H48.2566C47.1008 62.6582 46.1176 62.0847 45.5717 60.9509C45.4155 60.6256 45.307 60.2772 45.1672 59.9108C45.0258 59.9667 44.914 60.0045 44.8072 60.0538C42.1962 61.2664 39.4701 62.1077 36.6307 62.5711C35.5866 62.742 34.5327 62.857 33.4837 62.9983H29.5442C29.4094 62.9638 29.2746 62.9079 29.1381 62.8981C25.8284 62.6631 22.6453 61.8941 19.5739 60.6502C18.9968 60.4169 18.4296 60.1622 17.818 59.901C17.4365 61.6197 16.3464 62.553 14.7729 62.9983H13.5415C13.4708 62.9621 13.4033 62.9128 13.3277 62.8931C11.21 62.3213 10.0854 60.4465 10.6 58.317C10.7677 57.6219 10.9453 56.9269 11.1689 56.2466C11.3119 55.8128 11.2001 55.5614 10.8582 55.2623C5.2663 50.3625 1.78065 44.2598 0.4801 36.933C0.276222 35.7877 0.157841 34.6277 0 33.4758C0 32.1629 0 30.8517 0 29.5388C0.157841 28.3853 0.282799 27.2253 0.476812 26.0784C3.22259 9.91142 18.3392 -1.54462 34.6774 0.169182C41.2261 0.856019 47.086 3.25009 52.0152 7.62251C60.7129 15.3371 64.2857 25.0448 62.5906 36.5354C61.4791 44.0725 57.8225 50.323 52.0892 55.3445C51.7867 55.609 51.7456 55.8358 51.8442 56.1825C52.0695 56.9696 52.2931 57.7583 52.4707 58.5569C52.8225 60.1409 52.0925 61.7396 50.6687 62.5168C50.2971 62.719 49.8827 62.8422 49.4881 63.0016V62.9999ZM48.4868 43.5878C48.569 43.5467 48.6118 43.5368 48.6348 43.5122C48.6891 43.4514 48.7367 43.384 48.7828 43.3166C51.9117 38.6435 53.1727 33.5005 52.1106 27.9861C50.4582 19.4055 45.3169 13.8418 36.9233 11.318C36.0453 11.0534 35.6211 10.4323 35.8431 9.68795C36.047 9.00933 36.7145 8.71192 37.5498 8.92717C46.7539 11.2999 53.8271 19.5008 54.761 28.9128C55.4039 35.3983 53.6874 41.197 49.6328 46.3105C49.4668 46.5191 49.401 46.9135 49.4651 47.1797C49.8055 48.5912 50.2017 49.9911 50.5799 51.3944C50.7196 51.912 50.861 52.4279 51.0106 52.9817C59.1674 45.7962 63.069 33.4561 58.8353 21.6189C54.6344 9.87198 43.1696 2.13439 30.4518 2.4926C18.2816 2.83601 7.20644 11.3771 3.71256 23.0451C0.152909 34.9317 4.62507 46.5882 12.0189 52.9488C12.0716 52.7845 12.1275 52.6382 12.1686 52.4871C12.6339 50.747 13.0794 49.0019 13.5711 47.2701C13.6911 46.8461 13.6352 46.5586 13.3573 46.2168C10.1462 42.2535 8.41491 37.7069 8.15019 32.623C7.65201 23.0451 13.1847 14.0669 21.9843 10.1727C23.1402 9.66166 24.3618 9.28866 25.5719 8.91238C26.3447 8.67084 27.0139 9.05205 27.1931 9.72081C27.3789 10.4208 27.0155 11.014 26.246 11.2654C26.0898 11.3163 25.932 11.359 25.7758 11.405C14.8946 14.5369 8.49547 25.5739 11.2067 36.5502C11.8364 39.0987 12.9101 41.4467 14.4836 43.6436C14.5559 43.453 14.6151 43.3298 14.6513 43.2016C14.9834 41.9775 15.3106 40.7517 15.6394 39.5259C16.0538 37.9748 17.0353 37.0201 18.6088 36.6668C18.7617 36.6323 18.9771 36.5124 19.0166 36.3875C19.2468 35.6283 19.4358 34.8577 19.6496 34.0444C19.2747 33.9392 18.9623 33.8537 18.6516 33.765C16.4188 33.139 15.3172 31.2691 15.9041 29.0377C16.7049 25.9896 17.5319 22.9482 18.354 19.9051C18.5858 19.0457 19.1892 18.648 19.934 18.8436C20.6279 19.0243 20.9518 19.6865 20.7347 20.5163C20.493 21.448 20.2365 22.3747 19.9883 23.3047C19.7269 24.2857 19.4704 25.2667 19.2024 26.2838C20.0277 26.4957 20.7874 26.6913 21.5733 26.895C22.1043 24.9282 22.6058 23.0517 23.1204 21.1785C23.3556 20.3191 23.982 19.9051 24.6923 20.1121C25.3878 20.3158 25.7067 20.9632 25.4913 21.7881C25.1033 23.2735 24.6972 24.754 24.3026 26.2361C24.1892 26.6633 24.0872 27.0922 23.9738 27.5506C24.7843 27.7692 25.5292 27.9696 26.3036 28.1783C26.3693 27.9713 26.4318 27.8004 26.4779 27.6262C26.9464 25.8878 27.4052 24.146 27.882 22.4092C28.1039 21.6041 28.6893 21.213 29.3683 21.374C30.1016 21.5482 30.4831 22.1759 30.2693 22.9909C29.4275 26.177 28.5956 29.3647 27.6929 32.5343C27.1553 34.419 25.2513 35.4525 23.3325 35.0171C22.9182 34.9234 22.5072 34.8117 22.0451 34.6967C21.833 35.4821 21.616 36.2248 21.4401 36.9774C21.4072 37.1154 21.4927 37.3422 21.6029 37.4407C22.91 38.6172 23.1813 40.0353 22.7176 41.6883C22.0501 44.0725 21.4467 46.4748 20.7791 48.8606C20.6591 49.2928 20.7594 49.4768 21.1277 49.674C28.0431 53.3744 34.9536 53.376 41.8772 49.6954C42.3113 49.4653 42.4017 49.2221 42.2389 48.7801C42.0778 48.3398 42.0203 47.86 41.8476 47.4262C41.7671 47.2257 41.5418 46.994 41.3412 46.9464C39.8204 46.5799 38.8454 45.6565 38.4409 44.1612C37.1634 39.4405 35.8826 34.718 34.6445 29.9874C33.4821 25.5443 35.9779 20.9945 40.2906 19.6011C41.4645 19.2231 42.0334 19.5271 42.3475 20.7036C43.9999 26.872 45.6506 33.0404 47.303 39.2071C47.6943 40.6662 48.0922 42.1221 48.4901 43.5911L48.4868 43.5878ZM18.4871 57.4198C26.8379 61.7873 37.2686 61.342 44.5326 57.3853C44.0426 55.5663 43.5527 53.7391 43.043 51.8462C39.4175 53.8657 35.5948 54.8729 31.5189 54.8795C27.4282 54.8844 23.5973 53.8492 19.9801 51.8577C19.4704 53.7589 18.982 55.5729 18.4871 57.4198ZM45.9186 43.545C44.0081 36.4236 42.1189 29.3795 40.2281 22.3287C37.7388 23.3918 36.3068 26.4596 37.0055 29.2579C37.5596 31.481 38.1811 33.6861 38.773 35.8995C39.4389 38.3888 40.1015 40.8799 40.7691 43.3692C40.9976 44.2187 41.55 44.6788 42.2455 44.5161C43.4573 44.2302 44.6559 43.8835 45.9186 43.5467V43.545ZM20.4634 40.4296C20.4717 39.6886 20.0409 39.1808 19.4161 39.0938C18.7617 39.0034 18.2307 39.3731 18.0284 40.1191C16.3431 46.3844 14.6644 52.6497 12.9907 58.9184C12.7983 59.6413 13.1485 60.2756 13.8095 60.4843C14.4507 60.6847 15.1051 60.3167 15.3484 59.615C15.3944 59.4803 15.4273 59.3406 15.4651 59.201C17.0945 53.1115 18.7255 47.0236 20.3533 40.9341C20.4059 40.7369 20.4421 40.5364 20.4651 40.4296H20.4634ZM46.55 45.926C45.7131 46.1527 44.9666 46.3532 44.2005 46.5619C44.2317 46.7015 44.2481 46.8001 44.2728 46.8954C45.0867 49.9385 45.9005 52.9817 46.7144 56.0248C47.0268 57.1898 47.3293 58.358 47.6549 59.5214C47.8686 60.2822 48.5197 60.6831 49.1823 60.4974C49.8696 60.3052 50.2116 59.6594 50.0324 58.8986C50.0044 58.7787 49.9765 58.6587 49.9452 58.5404C49.2514 55.9525 48.5592 53.3645 47.8637 50.7765C47.4346 49.181 47.0005 47.5855 46.5516 45.9276L46.55 45.926ZM18.5562 28.6515C18.4362 29.1083 18.2997 29.5142 18.229 29.9299C18.1156 30.6052 18.4493 31.1541 19.1218 31.3447C20.6788 31.7834 22.2408 32.2007 23.8077 32.6C24.4637 32.7676 25.0228 32.5294 25.2595 31.9773C25.447 31.5386 25.5407 31.0604 25.687 30.5625C23.2684 29.9151 20.9419 29.2924 18.5546 28.6532L18.5562 28.6515Z" fill="#4C192A"/>
</g>
<defs>
<clipPath id="clip0_227_1191">
<rect width="63" height="63" fill="white"/>
</clipPath>
</defs>
</svg>
