<svg width="28" height="63" viewBox="0 0 28 63" fill="none" xmlns="http://www.w3.org/2000/svg">
<g clip-path="url(#clip0_227_1185)">
<path d="M12.574 63C11.6937 62.811 10.7876 62.6992 9.93632 62.4197C4.58364 60.6591 1.31076 56.944 0.0612656 51.363C0.0209593 51.1838 0.00161225 50.9981 0 50.8139C0 50.3126 0.254736 49.9936 0.731963 49.9098C1.20919 49.826 1.57033 50.0397 1.71866 50.5115C1.84119 50.8994 1.88795 51.3104 1.9863 51.7082C3.41153 57.4815 8.73841 61.486 14.5232 61.1342C20.453 60.7742 25.3414 56.2387 26.0443 50.306C26.5844 45.7409 25.1028 41.9123 21.6219 38.9484C21.1125 38.5144 20.8819 38.0755 20.8835 37.3884C20.9029 27.9558 20.9012 18.5249 20.8932 9.0923C20.89 5.71907 18.7473 2.88502 15.6243 2.07952C11.1987 0.937022 6.91173 4.29382 6.90206 8.95586C6.88432 18.4295 6.89077 27.9016 6.90689 37.3752C6.90689 38.0279 6.72471 38.4865 6.21524 38.9008C3.84522 40.8323 2.39097 43.3359 1.8154 46.3755C1.76219 46.6615 1.63966 47.0297 1.43007 47.1629C1.18178 47.3191 0.727126 47.3914 0.501411 47.2566C0.251511 47.107 -0.0112858 46.6549 0.0322451 46.3837C0.177348 45.4598 0.388553 44.5327 0.694881 43.6516C1.48811 41.3649 2.82144 39.4301 4.62394 37.8503C4.98831 37.5314 5.09472 37.2125 5.09472 36.7506C5.08343 27.5037 5.0786 18.2553 5.0915 9.00847C5.09633 4.73767 7.93067 1.14908 11.9823 0.221935C17.4301 -1.02413 22.6586 3.17763 22.6989 8.89011C22.7376 14.3856 22.7086 19.8811 22.7086 25.3749C22.7086 29.2298 22.7005 33.0847 22.7247 36.9396C22.7263 37.2158 22.8908 37.5643 23.0923 37.7533C27.4002 41.7841 28.9496 46.7503 27.4389 52.4644C25.9218 58.1999 21.9734 61.4942 16.337 62.7551C15.9307 62.8455 15.5195 62.9211 15.1116 63.0033H12.5772L12.574 63Z" fill="#4C192A"/>
<path d="M12.4288 19.9172H15.3873C15.3873 19.0427 15.3824 18.1895 15.3905 17.338C15.3921 17.0947 15.3953 16.8382 15.4663 16.6097C15.6033 16.1626 15.9661 15.8864 16.3869 16.0245C16.6932 16.1248 16.9657 16.4536 17.1559 16.7478C17.2688 16.9237 17.1978 17.2262 17.1978 17.4711C17.1978 24.811 17.2027 32.1526 17.1882 39.4925C17.1882 39.9429 17.3075 40.1698 17.7202 40.3703C21.4639 42.1983 23.3986 46.3639 22.4651 50.5279C21.5751 54.5044 17.9749 57.4141 13.9185 57.4387C9.84597 57.4634 6.23935 54.5356 5.3107 50.4506C4.39171 46.41 6.36189 42.1704 10.0314 40.3901C10.4828 40.1714 10.5795 39.9166 10.5795 39.458C10.5683 29.5142 10.5763 19.5687 10.565 9.62488C10.565 8.31142 10.9133 7.1903 12.0096 6.42425C13.0543 5.69437 14.1862 5.59245 15.326 6.16123C16.461 6.72672 17.1205 7.67689 17.1753 8.97555C17.2252 10.1427 17.2027 11.3131 17.1914 12.4803C17.1849 13.1017 16.8109 13.5028 16.2966 13.5011C15.7887 13.4979 15.4066 13.0935 15.3953 12.4737C15.376 11.4282 15.3986 10.3827 15.3841 9.3372C15.3695 8.34595 14.7649 7.6736 13.9105 7.6588C13.0624 7.64565 12.3965 8.31964 12.3901 9.29775C12.3724 12.7417 12.3837 16.1872 12.3853 19.6312C12.3853 19.7101 12.4094 19.789 12.4288 19.9172ZM12.3804 21.8142C12.3804 22.1019 12.3804 22.3617 12.3804 22.623C12.3804 28.5065 12.3804 34.3899 12.3804 40.275C12.3804 41.3353 12.3175 41.4257 11.3518 41.8071C8.15955 43.0647 6.34254 46.5004 7.04064 49.9624C7.70651 53.2584 10.8343 55.7307 14.162 55.5894C17.3994 55.4529 20.2208 52.9773 20.7674 49.7914C21.3607 46.336 19.5969 43.0762 16.4481 41.8071C15.4566 41.4076 15.3857 41.3041 15.3857 40.2339C15.3857 34.3505 15.3857 28.467 15.3857 22.5819C15.3857 22.3271 15.3857 22.074 15.3857 21.8142H12.3788H12.3804Z" fill="#4C192A"/>
</g>
<defs>
<clipPath id="clip0_227_1185">
<rect width="28" height="63" fill="white"/>
</clipPath>
</defs>
</svg>
