<svg width="84" height="84" viewBox="0 0 84 84" fill="none" xmlns="http://www.w3.org/2000/svg">
<g opacity="0.55">
<path d="M42 84C18.7765 84 0 65.2235 0 42C0 18.7765 18.7765 0 42 0C65.2235 0 84 18.7765 84 42C84 65.2235 65.2235 84 42 84ZM42 4.94118C21.4941 4.94118 4.94118 21.4941 4.94118 42C4.94118 62.5059 21.4941 79.0588 42 79.0588C62.5059 79.0588 79.0588 62.5059 79.0588 42C79.0588 21.4941 62.5059 4.94118 42 4.94118Z" fill="white"/>
<path d="M29.647 63.4941V20.5059L66.7058 42L29.647 63.4941ZM34.5881 28.9059V54.847L56.8234 41.7529L34.5881 28.9059Z" fill="white"/>
</g>
</svg>
